<svg width="514" height="151" viewBox="0 0 514 151" fill="none" xmlns="http://www.w3.org/2000/svg">
<path fill-rule="evenodd" clip-rule="evenodd" d="M111.411 80.9945C106.87 80.9945 102.846 78.7649 100.359 75.3323C97.4396 78.7965 93.0838 80.9945 88.2192 80.9945C79.4257 80.9945 72.2966 73.8133 72.2966 64.9542C72.2966 56.095 79.4257 48.9138 88.2192 48.9138C94.1884 48.9138 99.3907 52.2228 102.116 57.1193C104.555 54.8399 107.821 53.4464 111.411 53.4464C118.962 53.4464 125.083 59.6133 125.083 67.2207C125.083 74.828 118.962 80.9945 111.411 80.9945ZM88.2192 55.3647C82.9622 55.3647 78.7002 59.6578 78.7002 64.9542C78.7002 70.25 82.9622 74.5436 88.2192 74.5436C93.4763 74.5436 97.7382 70.25 97.7382 64.9542C97.7382 59.6578 93.4763 55.3647 88.2192 55.3647ZM111.411 59.8977C107.396 59.8977 104.142 63.1761 104.142 67.2207C104.142 71.2652 107.396 74.5436 111.411 74.5436C115.425 74.5436 118.68 71.2652 118.68 67.2207C118.68 63.1761 115.425 59.8977 111.411 59.8977ZM74.5297 86.7913L84.7957 92.0263C86.3124 87.2457 90.7587 83.7839 96.0072 83.7839H113.315C119.814 83.7839 125.083 89.0922 125.083 95.6404V105.055C125.083 111.603 119.814 116.911 113.315 116.911H96.0072C90.7882 116.911 86.3619 113.488 84.8214 108.749L74.5097 113.956C71.6902 115.38 68.2581 114.231 66.8447 111.39C66.4465 110.59 66.2393 109.707 66.2393 108.812V91.9248C66.2393 88.7475 68.7963 86.1716 71.9503 86.1716C72.8468 86.1716 73.7304 86.3833 74.5297 86.7913ZM90.2962 104.881C90.2962 108.122 92.878 110.756 96.0829 110.808L96.1806 110.809H113.141C116.359 110.809 118.973 108.208 119.025 104.979L119.026 104.881V95.8147C119.026 92.5737 116.443 89.9398 113.239 89.8872L113.141 89.8862H96.1806C92.9633 89.8862 90.349 92.4879 90.2971 95.7165L90.2962 95.8147V104.881ZM72.2966 105.719C72.2966 105.967 72.3552 106.211 72.4667 106.432C72.853 107.196 73.7742 107.504 74.5355 107.13L74.5621 107.117L84.2388 102.145V98.6295L74.5536 93.7306C74.3363 93.6205 74.0972 93.5635 73.8543 93.5635C73.0035 93.5635 72.3123 94.2507 72.2971 95.104L72.2966 105.719Z" fill="#FF4A07"/>
<path fill-rule="evenodd" clip-rule="evenodd" d="M463.325 78.3281C474.061 80.4275 479.239 81.0002 479.239 81.0002L478.608 86.4738C478.608 86.4738 465.662 85.199 457.452 82.7179C456.324 82.377 455.199 81.9752 454.098 81.539C447.841 83.9951 440.18 85.9743 431.182 86.4714C431.055 86.5987 430.392 80.8412 430.392 80.8412C430.392 80.8412 438.131 80.3509 446.716 78.0034C443.432 76.1799 441.223 74.6384 441.223 74.6384L444.475 69.3899C444.475 69.3899 448.386 72.6836 454.367 75.4012C458.21 73.787 461.809 71.7096 464.525 69.0399H444.554C438.795 73.6783 432.192 74.6384 432.192 74.6384C432.192 74.6384 431.723 72.1559 431.424 70.4947C431.278 69.6825 431.76 68.89 432.543 68.6467C443.191 65.3368 444.822 59.1157 444.822 59.1157C444.822 59.1157 450.001 62.2964 450.127 62.4238C449.949 62.7504 449.765 63.0683 449.575 63.3782H474.25V69.0399C474.25 69.0399 469.98 73.5399 461.765 77.9829C462.279 78.1074 462.798 78.2252 463.325 78.3281ZM423.604 105.515C423.604 105.684 420.32 109.671 420.32 109.671C420.32 109.671 417.206 107.954 413.632 104.625C411.903 106.192 409.884 107.719 407.527 109.164C407.026 109.471 406.381 109.385 405.979 108.956C404.898 107.801 402.954 105.653 402.954 105.653C402.954 105.653 406.346 103.833 409.869 100.597C407.269 97.3734 404.91 93.3169 403.817 88.4649L409.122 87.023C409.122 87.023 409.655 91.2031 413.641 96.4789C415.83 93.5726 417.513 90.0667 417.625 86.0897C417.625 85.9202 402.217 86.0897 402.217 86.0897V109.671H396.618V62.9343C396.618 61.8089 397.523 60.8967 398.64 60.8967H423.099V72.971C423.099 75.1953 421.534 77.1079 419.366 77.5322L411.184 79.1341L411.227 73.366L417.499 71.6694V66.7073H402.301V80.4912H423.562C423.562 80.4912 425.341 90.6495 417.378 100.645C419.083 102.267 421.135 103.914 423.604 105.515ZM389.445 108.549C388.714 109.382 387.456 109.468 386.618 108.746L383.777 106.299C383.777 106.299 388.24 102.694 388.24 96.7777C388.24 95.8194 388.24 94.3795 388.24 92.6426H380.325V91.5522C380.32 92.7211 380.167 102.249 376.536 107.975C376.401 108.192 376.25 108.443 376.105 108.685C375.741 109.297 375.083 109.671 374.373 109.671H369.379L372.578 102.291C372.578 102.291 374.936 97.541 374.768 88.3801C374.599 79.2188 374.515 60.8967 374.515 60.8967H392.111C393.228 60.8967 394.134 61.8089 394.134 62.9343V93.7239V97.9653C394.134 97.9653 394.302 103.055 391.524 106.193C390.618 107.215 389.944 107.981 389.445 108.549ZM388.24 66.6647H380.325V74.7021H388.24C388.24 70.1025 388.24 66.6647 388.24 66.6647ZM388.24 80.3643H380.325V87.023H388.24C388.24 84.8705 388.24 82.5906 388.24 80.3643ZM364.716 81.2804C364.429 81.5394 364.051 81.673 363.666 81.6525L349.108 81.6443V88.3323H364.224V102.255C364.228 103.037 364.066 103.813 363.748 104.528C363.365 105.453 362.807 106.296 362.107 107.008C361.38 107.709 360.532 108.27 359.603 108.662C358.884 108.968 358.112 109.131 357.331 109.141H328.247V89.8038C328.245 89.6085 328.282 89.415 328.354 89.2335C328.427 89.0534 328.537 88.8906 328.674 88.7541C328.809 88.6138 328.971 88.5037 329.15 88.4319C329.328 88.3624 329.518 88.3284 329.708 88.3323H343.314V81.6194H327.131V77.0639C327.141 76.8709 327.189 76.6813 327.272 76.507C327.356 76.3322 327.472 76.1761 327.615 76.0472C327.753 75.9156 327.919 75.8164 328.1 75.758C328.28 75.6895 328.474 75.6613 328.666 75.6752H343.314V69.0203H329.29C329.093 69.0212 328.899 68.9829 328.717 68.9077C328.535 68.8325 328.37 68.7219 328.231 68.5816C328.092 68.4418 327.982 68.2756 327.908 68.0927C327.833 67.9093 327.795 67.7134 327.796 67.5156V62.9438H354.056C354.948 62.9419 355.826 62.7236 356.617 62.3069C357.404 61.8874 358.078 61.2802 358.578 60.538C358.722 60.3062 358.943 60.1333 359.202 60.05C359.472 59.96 359.765 59.9777 360.023 60.0998L364.618 62.0096C363.757 64.0318 362.345 65.7673 360.546 67.0157C358.747 68.2636 356.633 68.9728 354.45 69.0614H348.985C349.052 69.2444 349.091 69.4369 349.1 69.6318V75.7082H365.201V80.2551C365.192 80.45 365.144 80.6411 365.061 80.8173C364.978 80.993 364.861 81.1506 364.716 81.2804ZM333.975 94.2435V103.272H356.74C356.929 103.274 357.115 103.237 357.289 103.164C357.474 103.088 357.642 102.976 357.783 102.834C357.924 102.692 358.035 102.524 358.111 102.337C358.183 102.159 358.22 101.968 358.217 101.775L358.193 94.2435H333.975ZM319.423 108.009C319.173 108.213 318.859 108.324 318.537 108.323H312.851L318.915 91.7878V91.7797C318.993 91.4689 319.172 91.1926 319.423 90.9953C319.674 90.7975 319.983 90.6898 320.301 90.6883H325.989L319.925 107.182C319.856 107.507 319.679 107.799 319.423 108.009ZM323.107 80.8733C323.22 81.0955 323.28 81.3426 323.279 81.5926V87.9008L314.253 81.5184C314.045 81.3742 313.876 81.1812 313.76 80.9562C313.646 80.7335 313.587 80.4869 313.588 80.2369V73.9867L322.615 80.3111C322.819 80.4581 322.987 80.6507 323.107 80.8733ZM314.478 67.3088C314.364 67.0952 314.305 66.8562 314.306 66.6144V60.2071L323.415 66.9367C323.612 67.0756 323.77 67.2638 323.874 67.4821C323.986 67.6962 324.042 67.9351 324.039 68.1765V74.6336L314.954 67.8542C314.757 67.7115 314.593 67.5247 314.478 67.3088ZM308.058 108.503C307.771 108.762 307.393 108.896 307.008 108.875H257.687V104.329C257.697 104.136 257.745 103.948 257.827 103.774C257.908 103.597 258.025 103.439 258.172 103.311C258.312 103.18 258.476 103.079 258.656 103.014C258.838 102.949 259.03 102.922 259.222 102.931H280.238C280.18 102.766 280.15 102.594 280.148 102.418V91.9607H263.079V87.4133C263.084 87.2208 263.132 87.0316 263.219 86.8597C263.301 86.6854 263.415 86.5283 263.555 86.3967C263.696 86.2645 263.864 86.1658 264.048 86.1074C264.228 86.0385 264.422 86.0102 264.613 86.0246H280.206V74.5579H266.321C265.528 78.0178 264.085 81.2923 262.069 84.2058L257.729 81.1468C257.449 80.9538 257.254 80.6583 257.187 80.3236C257.119 79.9889 257.184 79.6407 257.368 79.3529V79.237C258.779 76.9025 259.727 74.3137 260.158 71.6148L261.315 63.6698L261.594 61.6198L266.517 62.3304C266.736 62.3625 266.945 62.4386 267.133 62.5536C267.317 62.6685 267.479 62.8169 267.609 62.9917C267.738 63.1703 267.83 63.3724 267.88 63.587C267.925 63.8025 267.925 64.0247 267.88 64.2401L267.215 68.7708H280.148V60.0572H284.497C284.696 60.0558 284.893 60.0945 285.076 60.1716C285.259 60.2483 285.425 60.3608 285.565 60.5035C285.851 60.7899 286.013 61.1797 286.016 61.5867V68.7708H304.694V73.3177C304.683 73.5126 304.636 73.7032 304.554 73.8799C304.473 74.0527 304.359 74.2074 304.218 74.3348C304.074 74.4646 303.907 74.5656 303.725 74.6322C303.544 74.6973 303.351 74.7251 303.159 74.715H286.09V86.1816H303.2V90.7285C303.194 90.9201 303.149 91.1088 303.069 91.2826C302.986 91.4564 302.872 91.6135 302.732 91.7457C302.592 91.8769 302.428 91.9779 302.248 92.043C302.066 92.1072 301.874 92.1355 301.682 92.1259H286.09V103.096H308.51L308.542 107.478C308.533 107.673 308.486 107.864 308.403 108.04C308.32 108.216 308.202 108.373 308.058 108.503ZM253.078 96.9376L253.009 96.9386H231.701V102.293L231.7 102.424C231.632 106.547 228.395 109.928 224.284 110.161L224.153 110.168L224.025 110.172L223.824 110.174H218.417L218.342 110.173L218.268 110.166C217.657 110.105 217.18 109.665 216.997 109.059L215.676 104.105L223.833 104.105L223.915 104.104C224.782 104.065 225.505 103.414 225.627 102.556L225.637 102.471L225.64 102.422L225.645 102.324V96.9386H202.019V92.328L202.021 92.2552C202.059 91.4842 202.698 90.8703 203.481 90.8703H225.645V83.6393H207.274V79.0287L207.276 78.9559C207.313 78.1845 207.953 77.571 208.736 77.5705L225.645 77.5701V69.6184H207.037L206.964 69.6165L206.89 69.6107C206.153 69.5374 205.576 68.9159 205.576 68.1607L205.576 63.5496C229.133 63.5506 240.917 63.5506 240.928 63.5506C243.21 63.5223 244.765 62.1997 245.569 61.035C245.873 60.5959 246.487 60.2928 247.317 60.6524C248.522 61.1739 250.348 61.9645 251.69 62.5468C250.792 64.7832 247.409 69.637 240.796 69.6107C236.739 69.6289 233.706 69.6308 231.701 69.6184V77.5701L249.042 77.5705V82.1816L249.04 82.2539C249.003 83.0053 248.395 83.6101 247.637 83.6379L247.568 83.6393H231.701V90.8703H254.484V95.4809L254.482 95.5541C254.445 96.305 253.837 96.9098 253.078 96.9376ZM195.067 92.4003L194.998 92.4012C189.373 92.4003 185.931 92.4003 184.671 92.4008C187.512 100.939 194.203 103.87 196.463 104.779C196.085 106.053 195.619 107.633 195.086 109.439C194.907 110.045 194.434 110.534 193.321 110.045C193.231 110.006 193.137 109.963 193.04 109.92C189.699 108.399 182.338 104.131 179.162 94.9694C175.573 104.604 168.498 108.647 164.49 110.252C164.153 110.387 163.454 110.252 163.311 109.768C162.864 108.239 161.996 105.277 161.85 104.779C167.434 102.562 171.492 98.5442 173.663 92.4008C172.728 92.4003 168.79 92.4003 161.85 92.4008V87.7907L161.852 87.7183C161.89 86.9464 162.529 86.333 163.311 86.333H174.031L174.1 85.5361L174.126 85.1942C174.166 84.6215 174.195 83.8495 174.213 83.2366L174.223 82.8702L174.229 82.4962L174.244 79.1374L174.246 70.863H163.938V66.2524L163.94 66.1796C163.978 65.4086 164.617 64.7947 165.4 64.7947H174.241L174.235 60.4638L178.83 60.4556L178.902 60.4566L178.977 60.4623C179.691 60.5308 180.254 61.1136 180.291 61.8357L180.291 61.8573L180.291 61.8841L180.296 64.7947H192.107L192.18 64.7961C192.953 64.8344 193.568 65.4718 193.568 66.2524V86.333H196.472V90.9436L196.471 91.0168C196.433 91.7677 195.825 92.3725 195.067 92.4003ZM187.512 70.862H180.302L180.294 81.0314L180.289 82.0576L180.285 82.4723C180.273 83.432 180.239 84.5295 180.182 85.4092L180.118 86.333H187.513L187.512 70.862ZM162.472 80.8513L162.405 80.8523H158.825V110.15L154.231 110.177L154.159 110.175C153.385 110.137 152.77 109.5 152.77 108.719V60.4575H157.364L157.438 60.4594C158.19 60.4973 158.797 61.104 158.825 61.8606L158.826 61.9286L158.825 74.7835H163.879V79.3946L163.877 79.4674C163.84 80.2187 163.231 80.823 162.472 80.8513ZM150.228 83.6436L150.225 84.0363L150.22 84.4366C150.133 89.3661 149.31 93.8853 147.773 98.1899L143.311 96.68L143.24 96.6508C142.571 96.3534 142.222 95.6025 142.436 94.8952C143.504 91.3942 144.078 87.9161 144.162 84.461L144.168 84.1263L144.172 83.5986V67.0593H148.766L148.839 67.0612L148.913 67.0665C149.628 67.1373 150.19 67.7216 150.225 68.4451L150.225 68.4729L150.227 68.5112L150.226 82.0169L150.23 82.0193L150.228 83.6436ZM448.459 93.7239H433.139V89.6377C433.139 88.7676 433.84 88.0622 434.703 88.0622H450.039C450.145 87.0441 450.179 85.9642 450.127 84.8173H455.873C455.873 84.8173 455.994 86.0883 455.818 88.0622H472.986C474.103 88.0622 475.008 88.974 475.008 90.0993V100.577C475.008 103.867 472.851 106.762 469.715 107.681L463.32 109.554C462.37 109.833 461.372 109.306 461.058 108.361L459.852 104.73L467.096 102.346C468.425 101.909 469.324 100.66 469.324 99.251V93.7239H454.653C452.592 99.9689 447.253 107.582 433.615 109.798C432.844 109.924 432.096 109.468 431.836 108.726C431.265 107.098 430.392 104.476 430.392 104.476C430.392 104.476 443.678 103.568 448.459 93.7239Z" fill="#555555"/>
<rect x="125.239" y="14.9138" width="16" height="34" fill="#F7F7F7"/>
<rect x="125.339" y="15.0138" width="15.8" height="33.8" stroke="black" stroke-opacity="0.7" stroke-width="0.2"/>
<rect x="125.239" y="116.914" width="16" height="34" fill="#F7F7F7"/>
<rect x="125.339" y="117.014" width="15.8" height="33.8" stroke="black" stroke-opacity="0.7" stroke-width="0.2"/>
<rect x="32.7393" y="15.4138" width="33" height="33" stroke="black"/>
<rect x="32.2393" y="14.9138" width="34" height="34" fill="#F7F7F7"/>
<rect x="32.3393" y="15.0138" width="33.8" height="33.8" stroke="black" stroke-opacity="0.7" stroke-width="0.2"/>
<path d="M44.2908 33.8178C44.6308 33.8178 44.8888 33.6678 45.0648 33.3678C45.2528 33.0358 45.3468 32.5198 45.3468 31.8198C45.3468 31.1238 45.2548 30.6098 45.0708 30.2778C44.8908 29.9658 44.6268 29.8098 44.2788 29.8098C43.9508 29.8098 43.6948 29.9698 43.5108 30.2898C43.3148 30.6338 43.2168 31.1438 43.2168 31.8198C43.2168 32.5078 43.3168 33.0198 43.5168 33.3558C43.6968 33.6638 43.9548 33.8178 44.2908 33.8178ZM44.2788 29.3538C44.8228 29.3538 45.2388 29.5658 45.5268 29.9898C45.8148 30.4138 45.9588 31.0218 45.9588 31.8138C45.9588 32.6258 45.8148 33.2398 45.5268 33.6558C45.2468 34.0678 44.8348 34.2738 44.2908 34.2738C43.7988 34.2738 43.4108 34.0958 43.1268 33.7398C42.7868 33.3198 42.6168 32.6778 42.6168 31.8138C42.6168 31.0338 42.7668 30.4278 43.0668 29.9958C43.3628 29.5678 43.7668 29.3538 44.2788 29.3538ZM47.6272 33.4038V34.1898H46.9432V33.4038H47.6272ZM48.5751 32.9718L49.1451 32.8458C49.2011 33.1738 49.3251 33.4178 49.5171 33.5778C49.7011 33.7338 49.9391 33.8118 50.2311 33.8118C50.5631 33.8118 50.8271 33.7038 51.0231 33.4878C51.2231 33.2758 51.3231 32.9958 51.3231 32.6478C51.3231 32.3038 51.2271 32.0298 51.0351 31.8258C50.8351 31.6138 50.5691 31.5078 50.2371 31.5078C49.7811 31.5118 49.4411 31.6918 49.2171 32.0478L48.7611 32.0178L48.9951 29.4438H51.6591L51.6651 29.9238H49.4751L49.3131 31.5078C49.5811 31.2198 49.9371 31.0758 50.3811 31.0758C50.8411 31.0758 51.2111 31.2198 51.4911 31.5078C51.7631 31.7878 51.8991 32.1558 51.8991 32.6118C51.8991 33.1158 51.7531 33.5158 51.4611 33.8118C51.1691 34.1118 50.7651 34.2618 50.2491 34.2618C49.7971 34.2618 49.4291 34.1498 49.1451 33.9258C48.8651 33.7098 48.6751 33.3918 48.5751 32.9718ZM53.5088 31.4778C53.3448 31.6778 53.2568 31.9238 53.2448 32.2158C53.2448 32.3438 53.2448 32.4698 53.2448 32.5938C53.2448 32.9418 53.3288 33.2278 53.4968 33.4518C53.6808 33.6918 53.9328 33.8118 54.2528 33.8118C54.5888 33.8118 54.8448 33.6998 55.0208 33.4758C55.2008 33.2438 55.2908 32.8978 55.2908 32.4378C55.2908 32.0338 55.1988 31.7118 55.0148 31.4718C54.8268 31.2238 54.5788 31.0998 54.2708 31.0998C53.9628 31.1038 53.7088 31.2298 53.5088 31.4778ZM53.2508 33.5118V34.1958H52.6808V29.2698H53.2508V31.3998C53.3628 31.1598 53.5228 30.9738 53.7308 30.8418C53.9388 30.7098 54.1808 30.6438 54.4568 30.6438C54.8888 30.6438 55.2308 30.8038 55.4828 31.1238C55.7388 31.4438 55.8668 31.8778 55.8668 32.4258C55.8668 33.0338 55.7388 33.4958 55.4828 33.8118C55.2428 34.1118 54.8948 34.2618 54.4388 34.2618C54.1708 34.2618 53.9388 34.2018 53.7428 34.0818C53.5308 33.9538 53.3668 33.7638 53.2508 33.5118Z" fill="black" fill-opacity="0.5"/>
<path d="M96.3325 5.598C96.5965 5.374 96.7285 5.092 96.7285 4.752V4.272C96.5325 4.444 96.1725 4.56 95.6485 4.62C95.2885 4.66 95.0245 4.744 94.8565 4.872C94.7005 4.992 94.6225 5.154 94.6225 5.358C94.6225 5.562 94.6945 5.708 94.8385 5.796C94.9625 5.876 95.1565 5.916 95.4205 5.916C95.7845 5.916 96.0885 5.81 96.3325 5.598ZM97.4485 6.276L96.9025 6.288C96.7785 6.108 96.7165 5.866 96.7165 5.562C96.5845 5.81 96.3885 6.002 96.1285 6.138C95.8685 6.274 95.5565 6.346 95.1925 6.354C94.8485 6.354 94.5745 6.266 94.3705 6.09C94.1705 5.914 94.0705 5.676 94.0705 5.376C94.0705 5.08 94.1665 4.84 94.3585 4.656C94.5785 4.444 94.9225 4.312 95.3905 4.26C95.7625 4.22 96.0565 4.17 96.2725 4.11C96.4725 4.054 96.6125 3.984 96.6925 3.9C96.6885 3.628 96.6245 3.438 96.5005 3.33C96.3685 3.214 96.1285 3.156 95.7805 3.156C95.1965 3.156 94.8425 3.38 94.7185 3.828L94.1785 3.732C94.2705 3.392 94.4465 3.142 94.7065 2.982C94.9665 2.818 95.3245 2.736 95.7805 2.736C96.3245 2.736 96.7105 2.842 96.9385 3.054C97.1545 3.254 97.2625 3.586 97.2625 4.05V5.478C97.2625 5.81 97.3245 6.076 97.4485 6.276Z" fill="black" fill-opacity="0.5"/>
<path d="M10.4279 80.4766C10.2639 80.6766 10.1759 80.9226 10.1639 81.2146C10.1639 81.3426 10.1639 81.4686 10.1639 81.5926C10.1639 81.9406 10.2479 82.2266 10.4159 82.4506C10.5999 82.6906 10.8519 82.8106 11.1719 82.8106C11.5079 82.8106 11.7639 82.6986 11.9399 82.4746C12.1199 82.2426 12.2099 81.8966 12.2099 81.4366C12.2099 81.0326 12.1179 80.7106 11.9339 80.4706C11.7459 80.2226 11.4979 80.0986 11.1899 80.0986C10.8819 80.1026 10.6279 80.2286 10.4279 80.4766ZM10.1699 82.5106V83.1946H9.59994V78.2686H10.1699V80.3986C10.2819 80.1586 10.4419 79.9726 10.6499 79.8406C10.8579 79.7086 11.0999 79.6426 11.3759 79.6426C11.8079 79.6426 12.1499 79.8026 12.4019 80.1226C12.6579 80.4426 12.7859 80.8766 12.7859 81.4246C12.7859 82.0326 12.6579 82.4946 12.4019 82.8106C12.1619 83.1106 11.8139 83.2606 11.3579 83.2606C11.0899 83.2606 10.8579 83.2006 10.6619 83.0806C10.4499 82.9526 10.2859 82.7626 10.1699 82.5106Z" fill="black" fill-opacity="0.5"/>
<path d="M126.378 5.904C126.718 5.904 126.976 5.754 127.152 5.454C127.34 5.122 127.434 4.606 127.434 3.906C127.434 3.21 127.342 2.696 127.158 2.364C126.978 2.052 126.714 1.896 126.366 1.896C126.038 1.896 125.782 2.056 125.598 2.376C125.402 2.72 125.304 3.23 125.304 3.906C125.304 4.594 125.404 5.106 125.604 5.442C125.784 5.75 126.042 5.904 126.378 5.904ZM126.366 1.44C126.91 1.44 127.326 1.652 127.614 2.076C127.902 2.5 128.046 3.108 128.046 3.9C128.046 4.712 127.902 5.326 127.614 5.742C127.334 6.154 126.922 6.36 126.378 6.36C125.886 6.36 125.498 6.182 125.214 5.826C124.874 5.406 124.704 4.764 124.704 3.9C124.704 3.12 124.854 2.514 125.154 2.082C125.45 1.654 125.854 1.44 126.366 1.44ZM129.714 5.49V6.276H129.03V5.49H129.714ZM131.304 5.796H133.872V6.282H130.62V5.904C130.788 5.588 131.004 5.284 131.268 4.992C131.52 4.712 131.816 4.444 132.156 4.188C132.584 3.868 132.88 3.604 133.044 3.396C133.192 3.212 133.266 3.012 133.266 2.796C133.266 2.528 133.186 2.316 133.026 2.16C132.858 1.996 132.612 1.914 132.288 1.914C132.02 1.914 131.794 1.994 131.61 2.154C131.426 2.314 131.296 2.552 131.22 2.868L130.692 2.712C130.8 2.3 130.998 1.986 131.286 1.77C131.574 1.554 131.94 1.446 132.384 1.446C132.856 1.446 133.226 1.574 133.494 1.83C133.738 2.066 133.86 2.368 133.86 2.736C133.86 3.056 133.778 3.33 133.614 3.558C133.458 3.778 133.152 4.052 132.696 4.38C132.06 4.84 131.596 5.312 131.304 5.796ZM135.993 6.294L135.387 6.288C135.487 5.592 135.695 4.872 136.011 4.128C136.315 3.408 136.705 2.704 137.181 2.016H134.565V1.536H137.829V1.95C137.313 2.658 136.901 3.37 136.593 4.086C136.285 4.81 136.085 5.546 135.993 6.294ZM140.717 5.598C140.981 5.374 141.113 5.092 141.113 4.752V4.272C140.917 4.444 140.557 4.56 140.033 4.62C139.673 4.66 139.409 4.744 139.241 4.872C139.085 4.992 139.007 5.154 139.007 5.358C139.007 5.562 139.079 5.708 139.223 5.796C139.347 5.876 139.541 5.916 139.805 5.916C140.169 5.916 140.473 5.81 140.717 5.598ZM141.833 6.276L141.287 6.288C141.163 6.108 141.101 5.866 141.101 5.562C140.969 5.81 140.773 6.002 140.513 6.138C140.253 6.274 139.941 6.346 139.577 6.354C139.233 6.354 138.959 6.266 138.755 6.09C138.555 5.914 138.455 5.676 138.455 5.376C138.455 5.08 138.551 4.84 138.743 4.656C138.963 4.444 139.307 4.312 139.775 4.26C140.147 4.22 140.441 4.17 140.657 4.11C140.857 4.054 140.997 3.984 141.077 3.9C141.073 3.628 141.009 3.438 140.885 3.33C140.753 3.214 140.513 3.156 140.165 3.156C139.581 3.156 139.227 3.38 139.103 3.828L138.563 3.732C138.655 3.392 138.831 3.142 139.091 2.982C139.351 2.818 139.709 2.736 140.165 2.736C140.709 2.736 141.095 2.842 141.323 3.054C141.539 3.254 141.647 3.586 141.647 4.05V5.478C141.647 5.81 141.709 6.076 141.833 6.276Z" fill="black" fill-opacity="0.5"/>
<rect x="32.7393" y="117.414" width="33" height="33" stroke="black"/>
<rect x="32.3393" y="117.014" width="33.8" height="33.8" fill="#F7F7F7" stroke="#4C4C4C" stroke-width="0.2"/>
<path d="M44.2908 135.818C44.6308 135.818 44.8888 135.668 45.0648 135.368C45.2528 135.036 45.3468 134.52 45.3468 133.82C45.3468 133.124 45.2548 132.61 45.0708 132.278C44.8908 131.966 44.6268 131.81 44.2788 131.81C43.9508 131.81 43.6948 131.97 43.5108 132.29C43.3148 132.634 43.2168 133.144 43.2168 133.82C43.2168 134.508 43.3168 135.02 43.5168 135.356C43.6968 135.664 43.9548 135.818 44.2908 135.818ZM44.2788 131.354C44.8228 131.354 45.2388 131.566 45.5268 131.99C45.8148 132.414 45.9588 133.022 45.9588 133.814C45.9588 134.626 45.8148 135.24 45.5268 135.656C45.2468 136.068 44.8348 136.274 44.2908 136.274C43.7988 136.274 43.4108 136.096 43.1268 135.74C42.7868 135.32 42.6168 134.678 42.6168 133.814C42.6168 133.034 42.7668 132.428 43.0668 131.996C43.3628 131.568 43.7668 131.354 44.2788 131.354ZM47.6272 135.404V136.19H46.9432V135.404H47.6272ZM48.5751 134.972L49.1451 134.846C49.2011 135.174 49.3251 135.418 49.5171 135.578C49.7011 135.734 49.9391 135.812 50.2311 135.812C50.5631 135.812 50.8271 135.704 51.0231 135.488C51.2231 135.276 51.3231 134.996 51.3231 134.648C51.3231 134.304 51.2271 134.03 51.0351 133.826C50.8351 133.614 50.5691 133.508 50.2371 133.508C49.7811 133.512 49.4411 133.692 49.2171 134.048L48.7611 134.018L48.9951 131.444H51.6591L51.6651 131.924H49.4751L49.3131 133.508C49.5811 133.22 49.9371 133.076 50.3811 133.076C50.8411 133.076 51.2111 133.22 51.4911 133.508C51.7631 133.788 51.8991 134.156 51.8991 134.612C51.8991 135.116 51.7531 135.516 51.4611 135.812C51.1691 136.112 50.7651 136.262 50.2491 136.262C49.7971 136.262 49.4291 136.15 49.1451 135.926C48.8651 135.71 48.6751 135.392 48.5751 134.972ZM53.5088 133.478C53.3448 133.678 53.2568 133.924 53.2448 134.216C53.2448 134.344 53.2448 134.47 53.2448 134.594C53.2448 134.942 53.3288 135.228 53.4968 135.452C53.6808 135.692 53.9328 135.812 54.2528 135.812C54.5888 135.812 54.8448 135.7 55.0208 135.476C55.2008 135.244 55.2908 134.898 55.2908 134.438C55.2908 134.034 55.1988 133.712 55.0148 133.472C54.8268 133.224 54.5788 133.1 54.2708 133.1C53.9628 133.104 53.7088 133.23 53.5088 133.478ZM53.2508 135.512V136.196H52.6808V131.27H53.2508V133.4C53.3628 133.16 53.5228 132.974 53.7308 132.842C53.9388 132.71 54.1808 132.644 54.4568 132.644C54.8888 132.644 55.2308 132.804 55.4828 133.124C55.7388 133.444 55.8668 133.878 55.8668 134.426C55.8668 135.034 55.7388 135.496 55.4828 135.812C55.2428 136.112 54.8948 136.262 54.4388 136.262C54.1708 136.262 53.9388 136.202 53.7428 136.082C53.5308 135.954 53.3668 135.764 53.2508 135.512Z" fill="black" fill-opacity="0.5"/>
<rect x="479.739" y="117.414" width="33" height="33" stroke="black"/>
<rect x="479.339" y="117.014" width="33.8" height="33.8" fill="#F7F7F7" stroke="#4C4C4C" stroke-width="0.2"/>
<path d="M491.291 135.818C491.631 135.818 491.889 135.668 492.065 135.368C492.253 135.036 492.347 134.52 492.347 133.82C492.347 133.124 492.255 132.61 492.071 132.278C491.891 131.966 491.627 131.81 491.279 131.81C490.951 131.81 490.695 131.97 490.511 132.29C490.315 132.634 490.217 133.144 490.217 133.82C490.217 134.508 490.317 135.02 490.517 135.356C490.697 135.664 490.955 135.818 491.291 135.818ZM491.279 131.354C491.823 131.354 492.239 131.566 492.527 131.99C492.815 132.414 492.959 133.022 492.959 133.814C492.959 134.626 492.815 135.24 492.527 135.656C492.247 136.068 491.835 136.274 491.291 136.274C490.799 136.274 490.411 136.096 490.127 135.74C489.787 135.32 489.617 134.678 489.617 133.814C489.617 133.034 489.767 132.428 490.067 131.996C490.363 131.568 490.767 131.354 491.279 131.354ZM494.627 135.404V136.19H493.943V135.404H494.627ZM495.575 134.972L496.145 134.846C496.201 135.174 496.325 135.418 496.517 135.578C496.701 135.734 496.939 135.812 497.231 135.812C497.563 135.812 497.827 135.704 498.023 135.488C498.223 135.276 498.323 134.996 498.323 134.648C498.323 134.304 498.227 134.03 498.035 133.826C497.835 133.614 497.569 133.508 497.237 133.508C496.781 133.512 496.441 133.692 496.217 134.048L495.761 134.018L495.995 131.444H498.659L498.665 131.924H496.475L496.313 133.508C496.581 133.22 496.937 133.076 497.381 133.076C497.841 133.076 498.211 133.22 498.491 133.508C498.763 133.788 498.899 134.156 498.899 134.612C498.899 135.116 498.753 135.516 498.461 135.812C498.169 136.112 497.765 136.262 497.249 136.262C496.797 136.262 496.429 136.15 496.145 135.926C495.865 135.71 495.675 135.392 495.575 134.972ZM500.509 133.478C500.345 133.678 500.257 133.924 500.245 134.216C500.245 134.344 500.245 134.47 500.245 134.594C500.245 134.942 500.329 135.228 500.497 135.452C500.681 135.692 500.933 135.812 501.253 135.812C501.589 135.812 501.845 135.7 502.021 135.476C502.201 135.244 502.291 134.898 502.291 134.438C502.291 134.034 502.199 133.712 502.015 133.472C501.827 133.224 501.579 133.1 501.271 133.1C500.963 133.104 500.709 133.23 500.509 133.478ZM500.251 135.512V136.196H499.681V131.27H500.251V133.4C500.363 133.16 500.523 132.974 500.731 132.842C500.939 132.71 501.181 132.644 501.457 132.644C501.889 132.644 502.231 132.804 502.483 133.124C502.739 133.444 502.867 133.878 502.867 134.426C502.867 135.034 502.739 135.496 502.483 135.812C502.243 136.112 501.895 136.262 501.439 136.262C501.171 136.262 500.939 136.202 500.743 136.082C500.531 135.954 500.367 135.764 500.251 135.512Z" fill="black" fill-opacity="0.5"/>
<rect x="479.739" y="15.4138" width="33" height="33" stroke="black"/>
<rect x="479.339" y="15.0138" width="33.8" height="33.8" fill="#F7F7F7" stroke="#4C4C4C" stroke-width="0.2"/>
<path d="M491.291 33.8178C491.631 33.8178 491.889 33.6678 492.065 33.3678C492.253 33.0358 492.347 32.5198 492.347 31.8198C492.347 31.1238 492.255 30.6098 492.071 30.2778C491.891 29.9658 491.627 29.8098 491.279 29.8098C490.951 29.8098 490.695 29.9698 490.511 30.2898C490.315 30.6338 490.217 31.1438 490.217 31.8198C490.217 32.5078 490.317 33.0198 490.517 33.3558C490.697 33.6638 490.955 33.8178 491.291 33.8178ZM491.279 29.3538C491.823 29.3538 492.239 29.5658 492.527 29.9898C492.815 30.4138 492.959 31.0218 492.959 31.8138C492.959 32.6258 492.815 33.2398 492.527 33.6558C492.247 34.0678 491.835 34.2738 491.291 34.2738C490.799 34.2738 490.411 34.0958 490.127 33.7398C489.787 33.3198 489.617 32.6778 489.617 31.8138C489.617 31.0338 489.767 30.4278 490.067 29.9958C490.363 29.5678 490.767 29.3538 491.279 29.3538ZM494.627 33.4038V34.1898H493.943V33.4038H494.627ZM495.575 32.9718L496.145 32.8458C496.201 33.1738 496.325 33.4178 496.517 33.5778C496.701 33.7338 496.939 33.8118 497.231 33.8118C497.563 33.8118 497.827 33.7038 498.023 33.4878C498.223 33.2758 498.323 32.9958 498.323 32.6478C498.323 32.3038 498.227 32.0298 498.035 31.8258C497.835 31.6138 497.569 31.5078 497.237 31.5078C496.781 31.5118 496.441 31.6918 496.217 32.0478L495.761 32.0178L495.995 29.4438H498.659L498.665 29.9238H496.475L496.313 31.5078C496.581 31.2198 496.937 31.0758 497.381 31.0758C497.841 31.0758 498.211 31.2198 498.491 31.5078C498.763 31.7878 498.899 32.1558 498.899 32.6118C498.899 33.1158 498.753 33.5158 498.461 33.8118C498.169 34.1118 497.765 34.2618 497.249 34.2618C496.797 34.2618 496.429 34.1498 496.145 33.9258C495.865 33.7098 495.675 33.3918 495.575 32.9718ZM500.509 31.4778C500.345 31.6778 500.257 31.9238 500.245 32.2158C500.245 32.3438 500.245 32.4698 500.245 32.5938C500.245 32.9418 500.329 33.2278 500.497 33.4518C500.681 33.6918 500.933 33.8118 501.253 33.8118C501.589 33.8118 501.845 33.6998 502.021 33.4758C502.201 33.2438 502.291 32.8978 502.291 32.4378C502.291 32.0338 502.199 31.7118 502.015 31.4718C501.827 31.2238 501.579 31.0998 501.271 31.0998C500.963 31.1038 500.709 31.2298 500.509 31.4778ZM500.251 33.5118V34.1958H499.681V29.2698H500.251V31.3998C500.363 31.1598 500.523 30.9738 500.731 30.8418C500.939 30.7098 501.181 30.6438 501.457 30.6438C501.889 30.6438 502.231 30.8038 502.483 31.1238C502.739 31.4438 502.867 31.8778 502.867 32.4258C502.867 33.0338 502.739 33.4958 502.483 33.8118C502.243 34.1118 501.895 34.2618 501.439 34.2618C501.171 34.2618 500.939 34.2018 500.743 34.0818C500.531 33.9538 500.367 33.7638 500.251 33.5118Z" fill="black" fill-opacity="0.5"/>
<path d="M66.2393 15.0186H125.239" stroke="#4C4C4C" stroke-width="0.2"/>
<path d="M141.239 15.0186H479.239" stroke="#4C4C4C" stroke-width="0.2"/>
<path d="M66.2393 117.014H125.239" stroke="#4C4C4C" stroke-width="0.2"/>
<path d="M141.239 117.014H479.239" stroke="#4C4C4C" stroke-width="0.2"/>
<path d="M32.3394 116.914L32.3394 48.9138" stroke="#4C4C4C" stroke-width="0.2"/>
<path d="M479.355 116.914L479.355 48.9138" stroke="#4C4C4C" stroke-width="0.2"/>
<path d="M125.351 116.914L125.351 48.9138" stroke="#4C4C4C" stroke-width="0.2"/>
<path d="M141.13 116.914L141.13 48.9138" stroke="#4C4C4C" stroke-width="0.2"/>
<path d="M66.1355 116.914L66.1355 48.9138" stroke="#4C4C4C" stroke-width="0.2"/>
<path d="M513.139 116.914L513.139 48.9138" stroke="#4C4C4C" stroke-width="0.2"/>
<path d="M66.2393 48.8162H125.239" stroke="#4C4C4C" stroke-width="0.2"/>
<path d="M141.239 48.8162H479.239" stroke="#4C4C4C" stroke-width="0.2"/>
<path d="M66.2393 150.812H125.239" stroke="#4C4C4C" stroke-width="0.2"/>
<path d="M141.239 150.812H479.239" stroke="#4C4C4C" stroke-width="0.2"/>
<path d="M66.3003 12.1083V9.5473H125.279V12.1083" stroke="#4C4C4C" stroke-width="0.2"/>
<path d="M28.7041 116.911L26.1431 116.911L26.1431 48.9138L28.7041 48.9138" stroke="#4C4C4C" stroke-width="0.2"/>
<path d="M125.636 12.1083V9.5473H141.239V12.1083" stroke="#4C4C4C" stroke-width="0.2"/>
</svg>
